<svg id="visual" viewBox="0 0 900 600" width="900" height="600" xmlns="http://www.w3.org/2000/svg" xmlns:xlink="http://www.w3.org/1999/xlink" version="1.1"><rect x="0" y="0" width="900" height="600" fill="#001220"></rect><defs><linearGradient id="grad1_0" x1="33.3%" y1="0%" x2="100%" y2="100%"><stop offset="20%" stop-color="#001220" stop-opacity="1"></stop><stop offset="80%" stop-color="#001220" stop-opacity="1"></stop></linearGradient></defs><defs><linearGradient id="grad2_0" x1="0%" y1="0%" x2="66.7%" y2="100%"><stop offset="20%" stop-color="#001220" stop-opacity="1"></stop><stop offset="80%" stop-color="#001220" stop-opacity="1"></stop></linearGradient></defs><g transform="translate(900, 0)"><path d="M0 351.5C-47 339.8 -94.1 328.1 -124.8 301.2C-155.4 274.2 -169.7 232.1 -205.1 205.1C-240.4 178 -296.9 166.2 -324.8 134.5C-352.7 102.9 -352.1 51.4 -351.5 0L0 0Z" fill="#0a64d2"></path></g><g transform="translate(0, 600)"><path d="M0 -351.5C36.8 -326.6 73.5 -301.7 119.8 -289.2C166 -276.7 221.8 -276.7 248.6 -248.6C275.4 -220.5 273.1 -164.4 285.5 -118.2C297.8 -72.1 324.7 -36.1 351.5 0L0 0Z" fill="#0a64d2"></path></g></svg>