<svg height="600" version="1.1" width="800" xmlns="http://www.w3.org/2000/svg" preserveAspectRatio="xMidYMid meet" viewBox="0 0 600 442" xmlns:xlink="http://www.w3.org/1999/xlink"><desc>Created with Snap</desc><defs/><g id="root" contentwidth="373.3491228070175" contentheight="172">
          <rect class="background" height="2000%" width="2000%" y="-1000%" x="-1000%" style="" fill="#0064d2"/>
          <g class="content" id="content" transform="matrix(1,0,0,1,108.7254,237.1)">
            <g class="icon" transform="matrix(1,0,0,1,-80,-50)" style="mask: url(#mask);">
            <svg height="172" version="1.1" width="197.64912280701753" xmlns="http://www.w3.org/2000/svg" x="260.3" y="-52.1"><desc>Created with Snap</desc><defs/><svg viewBox="0 0 131 114" version="1.1" xmlns="http://www.w3.org/2000/svg" xmlns:xlink="http://www.w3.org/1999/xlink">
    <defs>
        <polygon id="path-ikv91t0fu5-1" points="0 0 124.249899 0 124.249899 102.996749 0 102.996749"/>
        <polygon id="path-ikv91t0fu5-3" points="0 0 97.4331 0 97.4331 76.5288687 0 76.5288687"/>
    </defs>
    <g id="a_xd_20211029011（右侧嵌入）" stroke="none" stroke-width="1" fill="none" fill-rule="evenodd">
        <g id="textCount-2" transform="translate(-323.000000, -164.000000)">
            <g id="编组备份" transform="translate(323.000000, 164.000000)">
                <g id="编组">
                    <mask id="mask-ikv91t0fu5-2" fill="white">
                        <use xlink:href="#path-ikv91t0fu5-1"/>
                    </mask>
                    <g id="Clip-2"/>
                    <path d="M39.1427,23.5748306 C47.4837,16.8538306 56.7707,11.2098306 66.7437,6.8828306 C71.7457,4.7568306 76.9307,2.9898306 82.3017,1.7248306 C87.6677,0.447830602 93.2527,-0.190169398 98.9697,0.0498306018 C101.8297,0.203830602 104.7287,0.621830602 107.5997,1.4628306 C110.4617,2.3078306 113.2917,3.6378306 115.8187,5.5578306 C118.3317,7.4908306 120.4557,10.0508306 121.8737,12.9438306 C123.3087,15.8378306 124.0307,19.0068306 124.2027,22.0848306 C124.3867,25.1748306 124.0167,28.1848306 123.3717,31.0538306 C122.7237,33.9288306 121.7907,36.6748306 120.6927,39.3178306 C118.4577,44.5898306 115.5237,49.4108306 112.2757,53.9328306 C105.6977,62.9328306 97.7397,70.6688306 89.0967,77.4048306 C84.7487,80.7438306 80.2437,83.8588306 75.5517,86.6698306 C70.8737,89.5018306 66.0217,92.0448306 61.0207,94.2598306 C56.0137,96.4558306 50.8927,98.4148306 45.6147,99.8878306 C40.3287,101.319831 34.9347,102.424831 29.4467,102.838831 C23.9737,103.203831 18.3717,103.008831 13.0397,101.476831 C10.3887,100.705831 7.8147,99.6028306 5.5377,98.0548306 C3.2787,96.4908306 1.3217,94.4948306 -0.0003,92.1588306 C1.7057,94.2288306 3.8197,95.8728306 6.1547,97.0128306 C8.4737,98.1838306 10.9827,98.9098306 13.5307,99.3138306 C18.6377,100.118831 23.8737,99.8388306 28.9797,98.9378306 C34.1007,98.1008306 39.1257,96.6628306 44.0177,94.8938306 C48.9017,93.0868306 53.6937,91.0218306 58.3247,88.6288306 C67.5577,83.7938306 76.3187,78.0368306 84.3727,71.4658306 C88.3917,68.1728306 92.2417,64.6868306 95.8327,60.9738306 C99.4567,57.2928306 102.7997,53.3618306 105.8057,49.2328306 C108.8117,45.1138306 111.4577,40.7548306 113.4417,36.2108306 C115.4237,31.6938306 116.7447,26.9118306 116.6557,22.3968306 C116.5927,17.8908306 114.8397,13.8168306 111.4797,11.0398306 C108.0987,8.2888306 103.3817,6.8048306 98.4807,6.2488306 C93.5397,5.7228306 88.3987,6.0748306 83.2967,6.8468306 C78.1827,7.6138306 73.1067,8.9198306 68.1147,10.5408306 C58.0877,13.7208306 48.4647,18.3208306 39.1427,23.5748306" id="Fill-1" fill="#ffffff" mask="url(#mask-ikv91t0fu5-2)" style=""/>
                </g>
                <g id="编组" transform="translate(32.999900, 37.230031)">
                    <mask id="mask-ikv91t0fu5-4" fill="white">
                        <use xlink:href="#path-ikv91t0fu5-3"/>
                    </mask>
                    <g id="Clip-4"/>
                    <path d="M96.779,8.354 C96.639,9.043 96.529,9.75 96.349,10.434 L95.762,12.468 C95.402,13.849 94.864,15.148 94.37,16.48 C92.293,21.756 89.44,26.694 86.189,31.312 C79.659,40.561 71.445,48.472 62.461,55.221 C53.433,61.911 43.525,67.455 32.963,71.332 C27.682,73.255 22.24,74.764 16.699,75.67 C15.312,75.884 13.918,76.062 12.529,76.222 C11.123,76.311 9.743,76.497 8.335,76.487 C5.545,76.611 2.741,76.453 0,76.1 C10.885,74.154 20.904,70.258 30.493,65.547 C40.068,60.815 49.124,55.131 57.687,48.805 C66.193,42.42 74.247,35.403 81.266,27.432 C84.784,23.459 88.054,19.255 90.869,14.736 C93.683,10.213 96.028,5.381 97.383,0 C97.524,2.752 97.385,5.604 96.779,8.354 Z" id="Fill-3" fill="#ffffff" mask="url(#mask-ikv91t0fu5-4)" style=""/>
                </g>
            </g>
        </g>
    </g>
<desc>Created with Snap</desc></svg></svg></g>
            <g id="icon_name_and_slogan_gap">
            </g>
            <g class="name_and_slogan" id="name_and_slogan_id">
              <g class="name"><g id="nameDefaultGroup"><path d="M4.6 -34.1Q4.6 -37 7.5 -37L7.5 -37L13 -37Q14.6 -37 15.1 -36Q15.6 -35.1 15.6 -34.1L15.6 -34.1L15.6 -31.3Q16 -32.5 16.7 -33.7Q17.4 -34.8 18.4 -35.7Q19.4 -36.6 20.7 -37.2Q22 -37.7 23.5 -37.7L23.5 -37.7Q25.6 -37.7 27.2 -37.3Q28.8 -36.9 30 -35.9L30 -35.9Q31 -34.9 31.2 -33.7Q31.3 -32.5 29.4 -30.7L29.4 -30.7Q28.1 -29.5 26.9 -29Q25.8 -28.4 25.2 -29.3L25.2 -29.3Q24.1 -31 23.1 -32Q22.1 -33 20.9 -33L20.9 -33Q20 -33 19.2 -32.4Q18.3 -31.8 17.6 -30.7Q16.9 -29.7 16.4 -28.4Q15.8 -27.1 15.6 -25.8L15.6 -25.8L15.6 -0.7Q15.6 1.9 13.2 1.9L13.2 1.9L7.1 1.9Q6 1.9 5.3 1.4Q4.6 0.8 4.6 -0.7L4.6 -0.7L4.6 -34.1M37.9 -8.6Q37.9 -12.2 39.9 -14.4Q41.8 -16.6 44.8 -18Q47.7 -19.3 51.2 -20Q54.6 -20.7 57.5 -21.5L57.5 -21.5Q58.4 -21.7 60.2 -22.3Q62 -22.8 63.9 -23.5L63.9 -23.5Q63.9 -28.5 62.5 -31.3Q61.1 -34.1 57 -34.1L57 -34.1Q55 -34.1 53.9 -33.6Q52.8 -33 52.1 -32Q51.4 -31 50.9 -29.5Q50.3 -27.9 49.5 -26L49.5 -26Q49.1 -25.1 48.8 -24.6Q48.4 -24 47.8 -23.6Q47.2 -23.3 46.3 -23.1Q45.4 -23 43.9 -23.3L43.9 -23.3Q41 -23.6 40.1 -24.3Q39.2 -25 39.6 -27.1L39.6 -27.1Q40.3 -30.2 41.9 -32.2Q43.6 -34.3 45.9 -35.5Q48.3 -36.7 51.2 -37.2Q54 -37.7 57 -37.7L57 -37.7Q62 -37.7 65.3 -36.8Q68.6 -35.9 70.5 -34.1Q72.4 -32.3 73.2 -29.6Q74 -26.8 74 -23.1L74 -23.1L74 -11.2Q74 -9.4 74.1 -8.2Q74.2 -6.9 74.5 -5.9Q74.8 -4.8 75.1 -3.9Q75.5 -3 75.8 -1.9L75.8 -1.9Q76.3 -0.6 75.8 0.2Q75.4 0.9 73 1.9L73 1.9Q70 3.2 68.6 3Q67.2 2.7 66.1 1.3L66.1 1.3Q65.5 0.5 65.1 -0.3Q64.6 -1 63.9 -2.7L63.9 -2.7Q61.3 -0.3 58.3 1.2Q55.4 2.7 50.7 2.7L50.7 2.7Q48 2.7 45.6 1.9Q43.3 1.1 41.6 -0.4Q39.8 -1.9 38.9 -3.9Q37.9 -6 37.9 -8.6L37.9 -8.6M48.1 -8.5Q48.1 -6 48.6 -4.5Q49.1 -3 49.9 -2.3Q50.7 -1.6 51.8 -1.4Q52.9 -1.2 54 -1.2L54 -1.2Q56 -1.4 57.8 -2.1Q59.6 -2.9 61 -4.1Q62.4 -5.3 63.2 -7.1Q63.9 -8.9 63.9 -11.1L63.9 -11.1L63.9 -20.1Q62.2 -19.3 60.5 -18.7Q58.8 -18.1 56.7 -17.4L56.7 -17.4Q54.2 -16.6 52.5 -15.8Q50.8 -15 49.9 -14Q48.9 -13 48.5 -11.6Q48.1 -10.3 48.1 -8.5L48.1 -8.5M117.6 -37Q119 -37 119.3 -36.2Q119.6 -35.4 119.2 -34.1L119.2 -34.1L102.2 8.8Q101.5 10.6 100.4 12.2Q99.3 13.8 97.8 15Q96.3 16.3 94.3 17Q92.3 17.7 89.8 17.7L89.8 17.7Q89.2 17.7 88.1 17.7Q87 17.6 85.7 17.5Q84.5 17.3 83.2 17Q82 16.7 81.2 16.1L81.2 16.1Q79.9 15.3 79.9 14.3L79.9 14.3Q79.9 13.3 80.2 12.8Q80.5 12.2 81.4 12.4L81.4 12.4Q83 12.7 84.5 13.1Q86.1 13.5 87.7 13.5L87.7 13.5Q90 13.5 91.6 11.8Q93.3 10.2 94.7 6.8L94.7 6.8L95.9 3.3L91.5 -7.3L80.3 -34.1Q79.9 -35.1 80 -36Q80.2 -37 81.6 -37L81.6 -37L87.5 -37Q89.9 -37 90.5 -35.1L90.5 -35.1L97.9 -13.8L100.3 -6.6L109.3 -35.1Q110.1 -37 111.7 -37L111.7 -37L117.6 -37M125.3 -8Q125 -9.4 125.3 -10.2Q125.5 -10.9 126.1 -11.3Q126.7 -11.7 127.6 -11.8Q128.5 -12 129.5 -12L129.5 -12Q132.3 -12 133.4 -11.5Q134.5 -11.1 134.9 -9.5L134.9 -9.5Q135.2 -7.9 135.8 -6.4Q136.3 -4.9 137.2 -3.7Q138.1 -2.6 139.3 -1.9Q140.6 -1.2 142.5 -1.2L142.5 -1.2Q144.4 -1.2 145.5 -1.7Q146.7 -2.2 147.3 -3.1Q148 -4 148.2 -5.1Q148.5 -6.3 148.5 -7.8L148.5 -7.8Q148.5 -10.3 147 -11.8Q145.5 -13.3 141.4 -14.8L141.4 -14.8Q138.3 -15.9 135.4 -17Q132.6 -18.1 130.5 -19.4Q128.3 -20.7 127.1 -22.5Q125.8 -24.2 125.8 -26.7L125.8 -26.7Q125.8 -28.9 126.9 -31Q128 -33 130 -34.5Q132 -36 134.9 -36.9Q137.7 -37.7 141.2 -37.7L141.2 -37.7Q145 -37.7 148 -37Q151 -36.2 153.1 -34.9Q155.3 -33.6 156.4 -31.6Q157.5 -29.7 157.5 -27.4L157.5 -27.4Q157.5 -25.8 156.3 -25.3Q155.2 -24.7 152 -24.7L152 -24.7Q149 -24.7 147.9 -25.4Q146.8 -26.1 146.6 -28.2L146.6 -28.2Q146.5 -29.2 146.3 -30.3Q146 -31.3 145.5 -32.2Q144.9 -33 143.9 -33.6Q142.9 -34.1 141.2 -34.1L141.2 -34.1Q139.3 -34.1 138.2 -33.6Q137.2 -33 136.7 -32.1Q136.3 -31.2 136.2 -30.2Q136.1 -29.2 136.1 -28.2L136.1 -28.2Q136.1 -26.6 136.8 -25.5Q137.4 -24.3 138.6 -23.5Q139.9 -22.6 141.6 -21.9Q143.4 -21.2 145.7 -20.5L145.7 -20.5Q149.4 -19.3 151.9 -18Q154.4 -16.8 155.9 -15.4Q157.4 -14 158.1 -12.5Q158.7 -10.9 158.7 -9L158.7 -9Q158.7 -6 157.5 -3.8Q156.2 -1.6 154 -0.1Q151.7 1.3 148.6 2Q145.5 2.7 141.9 2.7L141.9 2.7Q137.8 2.7 134.8 1.7Q131.8 0.8 129.8 -0.7Q127.8 -2.2 126.8 -4.1Q125.7 -6 125.3 -8L125.3 -8M200.7 -0.9Q201.3 0.1 200.9 1Q200.4 1.9 198.9 1.9L198.9 1.9L193.2 1.9Q191.7 1.9 190.9 1.6Q190 1.2 189.2 -0.3L189.2 -0.3L179.8 -18.5L176.5 -15.8L176.5 -0.7Q176.5 1.9 174.1 1.9L174.1 1.9L169.1 1.9Q168 1.9 167.3 1.4Q166.6 0.8 166.6 -0.7L166.6 -0.7L166.6 -49.2Q166.6 -52.1 169.5 -52.1L169.5 -52.1L174 -52.1Q175.5 -52.1 176 -51.1Q176.5 -50.1 176.5 -49.2L176.5 -49.2L176.5 -24.6L189.7 -35.6Q190.6 -36.4 191.2 -36.7Q191.9 -37 192.8 -37L192.8 -37L198.8 -37Q200.2 -37 200.4 -36.4Q200.6 -35.9 199.7 -35.1L199.7 -35.1L186.9 -24.4L200.7 -0.9M208.7 -17.6Q208.7 -23 210.5 -26.9Q212.2 -30.7 215 -33.1Q217.8 -35.5 221.3 -36.6Q224.8 -37.7 228.2 -37.7L228.2 -37.7Q231.6 -37.7 235 -36.7Q238.5 -35.7 241.3 -33.3Q244.2 -31 246 -27.1Q247.8 -23.3 247.8 -17.6L247.8 -17.6Q247.8 -12.2 246.2 -8.3Q244.5 -4.5 241.8 -2.1Q239 0.4 235.5 1.5Q232 2.7 228.2 2.7L228.2 2.7Q224.8 2.7 221.3 1.6Q217.8 0.5 215 -1.9Q212.2 -4.2 210.5 -8.1Q208.7 -12 208.7 -17.6L208.7 -17.6M219.6 -17.6Q219.6 -13.2 220.3 -10.1Q221 -7 222.2 -5Q223.4 -3 224.9 -2.1Q226.5 -1.1 228.2 -1.1L228.2 -1.1Q230 -1.1 231.6 -2.1Q233.1 -3 234.3 -5Q235.5 -7 236.2 -10.1Q236.9 -13.2 236.9 -17.6L236.9 -17.6Q236.9 -21.9 236.2 -25Q235.5 -28.2 234.3 -30.2Q233.1 -32.2 231.6 -33.2Q230 -34.1 228.2 -34.1L228.2 -34.1Q226.5 -34.1 224.9 -33.2Q223.4 -32.2 222.2 -30.2Q221 -28.2 220.3 -25Q219.6 -21.9 219.6 -17.6L219.6 -17.6" style="" fill="#ffffff" id="namepathdata"/></g></g>
              <g class="slogan"><g id="sloganDefaultGroup"/></g>
            </g>
            <g class="border">
            </g>
          </g>
          
          <defs id="defs">
            <mask xmlns="http://www.w3.org/2000/svg" id="mask">
                <rect id="showAll" fill="white" x="260.3" y="-52.099999999999994" width="197.64912280701753" height="172"/>
                <rect id="hideNameBg" fill="black" x="0" y="0" width="0" height="0" stroke-width="2" stroke="black"/>
                <rect id="hideSloganBg" fill="black" x="0" y="0" width="0" height="0" stroke-width="2" stroke="black"/>
            <path d="M4.6 -34.1Q4.6 -37 7.5 -37L7.5 -37L13 -37Q14.6 -37 15.1 -36Q15.6 -35.1 15.6 -34.1L15.6 -34.1L15.6 -31.3Q16 -32.5 16.7 -33.7Q17.4 -34.8 18.4 -35.7Q19.4 -36.6 20.7 -37.2Q22 -37.7 23.5 -37.7L23.5 -37.7Q25.6 -37.7 27.2 -37.3Q28.8 -36.9 30 -35.9L30 -35.9Q31 -34.9 31.2 -33.7Q31.3 -32.5 29.4 -30.7L29.4 -30.7Q28.1 -29.5 26.9 -29Q25.8 -28.4 25.2 -29.3L25.2 -29.3Q24.1 -31 23.1 -32Q22.1 -33 20.9 -33L20.9 -33Q20 -33 19.2 -32.4Q18.3 -31.8 17.6 -30.7Q16.9 -29.7 16.4 -28.4Q15.8 -27.1 15.6 -25.8L15.6 -25.8L15.6 -0.7Q15.6 1.9 13.2 1.9L13.2 1.9L7.1 1.9Q6 1.9 5.3 1.4Q4.6 0.8 4.6 -0.7L4.6 -0.7L4.6 -34.1M37.9 -8.6Q37.9 -12.2 39.9 -14.4Q41.8 -16.6 44.8 -18Q47.7 -19.3 51.2 -20Q54.6 -20.7 57.5 -21.5L57.5 -21.5Q58.4 -21.7 60.2 -22.3Q62 -22.8 63.9 -23.5L63.9 -23.5Q63.9 -28.5 62.5 -31.3Q61.1 -34.1 57 -34.1L57 -34.1Q55 -34.1 53.9 -33.6Q52.8 -33 52.1 -32Q51.4 -31 50.9 -29.5Q50.3 -27.9 49.5 -26L49.5 -26Q49.1 -25.1 48.8 -24.6Q48.4 -24 47.8 -23.6Q47.2 -23.3 46.3 -23.1Q45.4 -23 43.9 -23.3L43.9 -23.3Q41 -23.6 40.1 -24.3Q39.2 -25 39.6 -27.1L39.6 -27.1Q40.3 -30.2 41.9 -32.2Q43.6 -34.3 45.9 -35.5Q48.3 -36.7 51.2 -37.2Q54 -37.7 57 -37.7L57 -37.7Q62 -37.7 65.3 -36.8Q68.6 -35.9 70.5 -34.1Q72.4 -32.3 73.2 -29.6Q74 -26.8 74 -23.1L74 -23.1L74 -11.2Q74 -9.4 74.1 -8.2Q74.2 -6.9 74.5 -5.9Q74.8 -4.8 75.1 -3.9Q75.5 -3 75.8 -1.9L75.8 -1.9Q76.3 -0.6 75.8 0.2Q75.4 0.9 73 1.9L73 1.9Q70 3.2 68.6 3Q67.2 2.7 66.1 1.3L66.1 1.3Q65.5 0.5 65.1 -0.3Q64.6 -1 63.9 -2.7L63.9 -2.7Q61.3 -0.3 58.3 1.2Q55.4 2.7 50.7 2.7L50.7 2.7Q48 2.7 45.6 1.9Q43.3 1.1 41.6 -0.4Q39.8 -1.9 38.9 -3.9Q37.9 -6 37.9 -8.6L37.9 -8.6M48.1 -8.5Q48.1 -6 48.6 -4.5Q49.1 -3 49.9 -2.3Q50.7 -1.6 51.8 -1.4Q52.9 -1.2 54 -1.2L54 -1.2Q56 -1.4 57.8 -2.1Q59.6 -2.9 61 -4.1Q62.4 -5.3 63.2 -7.1Q63.9 -8.9 63.9 -11.1L63.9 -11.1L63.9 -20.1Q62.2 -19.3 60.5 -18.7Q58.8 -18.1 56.7 -17.4L56.7 -17.4Q54.2 -16.6 52.5 -15.8Q50.8 -15 49.9 -14Q48.9 -13 48.5 -11.6Q48.1 -10.3 48.1 -8.5L48.1 -8.5M117.6 -37Q119 -37 119.3 -36.2Q119.6 -35.4 119.2 -34.1L119.2 -34.1L102.2 8.8Q101.5 10.6 100.4 12.2Q99.3 13.8 97.8 15Q96.3 16.3 94.3 17Q92.3 17.7 89.8 17.7L89.8 17.7Q89.2 17.7 88.1 17.7Q87 17.6 85.7 17.5Q84.5 17.3 83.2 17Q82 16.7 81.2 16.1L81.2 16.1Q79.9 15.3 79.9 14.3L79.9 14.3Q79.9 13.3 80.2 12.8Q80.5 12.2 81.4 12.4L81.4 12.4Q83 12.7 84.5 13.1Q86.1 13.5 87.7 13.5L87.7 13.5Q90 13.5 91.6 11.8Q93.3 10.2 94.7 6.8L94.7 6.8L95.9 3.3L91.5 -7.3L80.3 -34.1Q79.9 -35.1 80 -36Q80.2 -37 81.6 -37L81.6 -37L87.5 -37Q89.9 -37 90.5 -35.1L90.5 -35.1L97.9 -13.8L100.3 -6.6L109.3 -35.1Q110.1 -37 111.7 -37L111.7 -37L117.6 -37M125.3 -8Q125 -9.4 125.3 -10.2Q125.5 -10.9 126.1 -11.3Q126.7 -11.7 127.6 -11.8Q128.5 -12 129.5 -12L129.5 -12Q132.3 -12 133.4 -11.5Q134.5 -11.1 134.9 -9.5L134.9 -9.5Q135.2 -7.9 135.8 -6.4Q136.3 -4.9 137.2 -3.7Q138.1 -2.6 139.3 -1.9Q140.6 -1.2 142.5 -1.2L142.5 -1.2Q144.4 -1.2 145.5 -1.7Q146.7 -2.2 147.3 -3.1Q148 -4 148.2 -5.1Q148.5 -6.3 148.5 -7.8L148.5 -7.8Q148.5 -10.3 147 -11.8Q145.5 -13.3 141.4 -14.8L141.4 -14.8Q138.3 -15.9 135.4 -17Q132.6 -18.1 130.5 -19.4Q128.3 -20.7 127.1 -22.5Q125.8 -24.2 125.8 -26.7L125.8 -26.7Q125.8 -28.9 126.9 -31Q128 -33 130 -34.5Q132 -36 134.9 -36.9Q137.7 -37.7 141.2 -37.7L141.2 -37.7Q145 -37.7 148 -37Q151 -36.2 153.1 -34.9Q155.3 -33.6 156.4 -31.6Q157.5 -29.7 157.5 -27.4L157.5 -27.4Q157.5 -25.8 156.3 -25.3Q155.2 -24.7 152 -24.7L152 -24.7Q149 -24.7 147.9 -25.4Q146.8 -26.1 146.6 -28.2L146.6 -28.2Q146.5 -29.2 146.3 -30.3Q146 -31.3 145.5 -32.2Q144.9 -33 143.9 -33.6Q142.9 -34.1 141.2 -34.1L141.2 -34.1Q139.3 -34.1 138.2 -33.6Q137.2 -33 136.7 -32.1Q136.3 -31.2 136.2 -30.2Q136.1 -29.2 136.1 -28.2L136.1 -28.2Q136.1 -26.6 136.8 -25.5Q137.4 -24.3 138.6 -23.5Q139.9 -22.6 141.6 -21.9Q143.4 -21.2 145.7 -20.5L145.7 -20.5Q149.4 -19.3 151.9 -18Q154.4 -16.8 155.9 -15.4Q157.4 -14 158.1 -12.5Q158.7 -10.9 158.7 -9L158.7 -9Q158.7 -6 157.5 -3.8Q156.2 -1.6 154 -0.1Q151.7 1.3 148.6 2Q145.5 2.7 141.9 2.7L141.9 2.7Q137.8 2.7 134.8 1.7Q131.8 0.8 129.8 -0.7Q127.8 -2.2 126.8 -4.1Q125.7 -6 125.3 -8L125.3 -8M200.7 -0.9Q201.3 0.1 200.9 1Q200.4 1.9 198.9 1.9L198.9 1.9L193.2 1.9Q191.7 1.9 190.9 1.6Q190 1.2 189.2 -0.3L189.2 -0.3L179.8 -18.5L176.5 -15.8L176.5 -0.7Q176.5 1.9 174.1 1.9L174.1 1.9L169.1 1.9Q168 1.9 167.3 1.4Q166.6 0.8 166.6 -0.7L166.6 -0.7L166.6 -49.2Q166.6 -52.1 169.5 -52.1L169.5 -52.1L174 -52.1Q175.5 -52.1 176 -51.1Q176.5 -50.1 176.5 -49.2L176.5 -49.2L176.5 -24.6L189.7 -35.6Q190.6 -36.4 191.2 -36.7Q191.9 -37 192.8 -37L192.8 -37L198.8 -37Q200.2 -37 200.4 -36.4Q200.6 -35.9 199.7 -35.1L199.7 -35.1L186.9 -24.4L200.7 -0.9M208.7 -17.6Q208.7 -23 210.5 -26.9Q212.2 -30.7 215 -33.1Q217.8 -35.5 221.3 -36.6Q224.8 -37.7 228.2 -37.7L228.2 -37.7Q231.6 -37.7 235 -36.7Q238.5 -35.7 241.3 -33.3Q244.2 -31 246 -27.1Q247.8 -23.3 247.8 -17.6L247.8 -17.6Q247.8 -12.2 246.2 -8.3Q244.5 -4.5 241.8 -2.1Q239 0.4 235.5 1.5Q232 2.7 228.2 2.7L228.2 2.7Q224.8 2.7 221.3 1.6Q217.8 0.5 215 -1.9Q212.2 -4.2 210.5 -8.1Q208.7 -12 208.7 -17.6L208.7 -17.6M219.6 -17.6Q219.6 -13.2 220.3 -10.1Q221 -7 222.2 -5Q223.4 -3 224.9 -2.1Q226.5 -1.1 228.2 -1.1L228.2 -1.1Q230 -1.1 231.6 -2.1Q233.1 -3 234.3 -5Q235.5 -7 236.2 -10.1Q236.9 -13.2 236.9 -17.6L236.9 -17.6Q236.9 -21.9 236.2 -25Q235.5 -28.2 234.3 -30.2Q233.1 -32.2 231.6 -33.2Q230 -34.1 228.2 -34.1L228.2 -34.1Q226.5 -34.1 224.9 -33.2Q223.4 -32.2 222.2 -30.2Q221 -28.2 220.3 -25Q219.6 -21.9 219.6 -17.6L219.6 -17.6" style="stroke-width: 0;" fill="#000000" id="masknamepathdata" stroke="#000000" paint-order="stroke" transform="matrix(1,0,0,1,80,50)"/></mask>
          </defs>
          
        </g>
        </svg>